<?xml version="1.0" encoding="UTF-8" ?>
<!DOCTYPE svg PUBLIC "-//W3C//DTD SVG 1.1//EN" "http://www.w3.org/Graphics/SVG/1.1/DTD/svg11.dtd">
<svg width="594pt" height="189pt" viewBox="0 0 594 189" version="1.1" xmlns="http://www.w3.org/2000/svg">
<g id="#e8eaffff">
<path fill="#e8eaff" opacity="1.00" d=" M 430.24 27.52 C 431.73 27.51 433.22 27.49 434.71 27.48 C 434.82 71.63 434.68 115.78 434.78 159.93 C 433.27 159.97 431.76 160.01 430.26 160.04 C 430.22 115.86 430.26 71.69 430.24 27.52 Z" />
<path fill="#e8eaff" opacity="1.00" d=" M 459.36 69.30 C 465.68 65.05 473.76 64.31 481.13 65.45 C 487.70 66.55 494.59 70.34 496.62 77.10 C 498.73 83.05 496.25 90.34 490.31 92.96 C 494.41 94.77 497.80 98.41 498.57 102.91 C 499.35 108.60 496.90 114.81 491.99 117.96 C 485.52 122.20 477.40 122.81 469.91 121.98 C 464.72 121.17 459.24 119.40 455.81 115.19 C 453.21 112.49 452.49 108.69 452.08 105.11 C 455.66 104.94 459.25 104.95 462.84 105.05 C 463.56 110.32 469.28 112.29 473.88 112.69 C 478.28 112.82 483.43 111.99 486.28 108.27 C 488.66 105.13 487.16 100.15 483.51 98.72 C 478.25 96.62 472.47 97.35 466.95 97.32 C 466.98 94.37 466.99 91.42 467.05 88.48 C 472.81 88.25 479.24 89.55 484.38 86.26 C 487.82 83.93 486.85 78.41 483.40 76.60 C 478.33 73.88 471.76 74.11 466.75 76.84 C 464.85 77.72 464.12 79.69 463.62 81.57 C 460.11 81.49 456.61 81.51 453.11 81.48 C 453.02 76.69 455.34 71.96 459.36 69.30 Z" />
<path fill="#e8eaff" opacity="1.00" d=" M 33.54 121.46 C 41.86 102.88 50.16 84.31 58.52 65.76 C 60.16 65.76 61.81 65.75 63.45 65.74 C 71.81 84.30 80.07 102.90 88.49 121.43 C 86.85 121.48 85.20 121.52 83.56 121.57 C 75.97 104.46 68.31 87.37 60.97 70.15 C 53.52 87.31 45.92 104.41 38.43 121.55 C 36.80 121.50 35.17 121.48 33.54 121.46 Z" />
<path fill="#e8eaff" opacity="1.00" d=" M 98.00 65.74 C 109.46 66.45 121.99 63.49 132.45 69.59 C 147.36 78.33 149.52 101.49 137.61 113.58 C 132.60 118.87 125.20 121.36 118.02 121.50 C 111.37 121.56 104.72 121.44 98.07 121.56 C 98.03 120.04 98.00 118.52 97.96 117.00 C 104.64 116.99 111.31 117.01 117.99 117.01 C 125.01 117.06 132.13 113.77 136.20 107.97 C 141.02 101.19 142.03 91.96 138.96 84.25 C 136.15 76.38 128.39 70.80 120.11 70.20 C 112.76 69.72 105.37 70.15 98.00 70.01 C 98.00 68.58 98.00 67.16 98.00 65.74 Z" />
<path fill="#e8eaff" opacity="1.00" d=" M 157.29 65.72 C 168.87 66.49 181.63 63.39 192.08 69.87 C 206.86 78.97 208.52 102.29 196.25 114.16 C 191.20 119.18 183.96 121.35 176.97 121.51 C 170.38 121.52 163.80 121.50 157.22 121.50 C 157.24 120.01 157.26 118.52 157.29 117.03 C 164.19 116.94 171.09 117.05 178.00 116.99 C 186.36 116.89 194.45 111.66 197.64 103.88 C 202.77 92.93 198.85 77.75 187.46 72.47 C 177.99 68.20 167.29 70.64 157.27 70.04 C 157.26 68.60 157.27 67.16 157.29 65.72 Z" />
<path fill="#e8eaff" opacity="1.00" d=" M 216.30 121.57 C 216.20 102.96 216.22 84.35 216.28 65.75 C 217.39 65.73 219.59 65.70 220.69 65.69 C 220.83 84.29 220.74 102.90 220.74 121.50 C 219.63 121.52 217.41 121.55 216.30 121.57 Z" />
<path fill="#e8eaff" opacity="1.00" d=" M 229.52 65.70 C 244.42 65.80 259.32 65.72 274.23 65.74 C 274.24 67.07 274.24 68.41 274.24 69.75 C 267.58 69.74 260.93 69.79 254.27 69.72 C 254.22 86.97 254.25 104.22 254.26 121.48 C 252.76 121.49 251.26 121.49 249.76 121.49 C 249.73 104.25 249.72 87.01 249.77 69.77 C 243.00 69.70 236.22 69.83 229.45 69.70 C 229.47 68.70 229.50 66.70 229.52 65.70 Z" />
<path fill="#e8eaff" opacity="1.00" d=" M 283.04 65.71 C 284.52 65.73 286.00 65.75 287.48 65.75 C 287.51 84.33 287.51 102.92 287.49 121.50 C 285.98 121.50 284.48 121.49 282.99 121.48 C 283.04 102.89 282.93 84.30 283.04 65.71 Z" />
<path fill="#e8eaff" opacity="1.00" d=" M 302.24 65.74 C 303.72 65.74 305.20 65.72 306.69 65.69 C 306.86 77.44 306.65 89.19 306.78 100.94 C 306.89 107.07 310.01 113.48 315.73 116.16 C 322.62 119.77 332.07 118.19 336.88 111.90 C 340.08 108.09 340.76 102.91 340.76 98.10 C 340.74 87.33 340.76 76.56 340.75 65.79 C 342.15 65.77 343.55 65.73 344.96 65.69 C 345.06 77.46 344.96 89.23 345.01 101.00 C 345.21 108.24 341.57 115.73 335.12 119.27 C 325.72 124.96 311.85 122.53 305.80 113.10 C 303.10 108.94 302.19 103.89 302.24 99.00 C 302.25 87.92 302.24 76.83 302.24 65.74 Z" />
<path fill="#e8eaff" opacity="1.00" d=" M 360.06 65.72 C 361.78 65.74 363.50 65.75 365.22 65.75 C 372.33 76.46 379.34 87.23 386.45 97.93 C 393.20 87.12 400.42 76.60 407.13 65.77 C 408.98 65.75 410.83 65.72 412.69 65.68 C 412.83 84.29 412.73 102.90 412.74 121.50 C 411.63 121.52 409.41 121.54 408.30 121.56 C 408.21 105.19 408.22 88.82 408.29 72.44 C 401.44 83.32 394.15 93.92 387.30 104.80 C 386.84 104.74 385.91 104.64 385.45 104.59 C 378.61 93.92 371.62 83.34 364.54 72.84 C 364.45 89.06 364.52 105.29 364.50 121.52 C 363.01 121.52 361.53 121.53 360.06 121.54 C 359.96 102.93 359.95 84.33 360.06 65.72 Z" />
</g>
<g id="#4d8effff">
<path fill="#4d8eff" opacity="1.00" d=" M 506.40 65.96 C 517.10 66.05 527.95 64.93 538.53 66.86 C 538.77 67.02 539.24 67.34 539.47 67.50 C 538.09 68.47 536.65 69.36 535.41 70.51 C 535.23 72.94 536.05 75.30 536.60 77.63 C 531.33 75.37 525.53 76.10 519.97 75.99 C 515.45 75.97 510.94 76.02 506.43 75.87 C 506.48 72.56 506.47 69.26 506.40 65.96 Z" />
<path fill="#4d8eff" opacity="1.00" d=" M 506.38 111.44 C 516.02 111.13 525.84 112.42 535.32 110.15 C 536.18 111.13 537.05 112.11 537.92 113.10 C 536.36 113.75 534.79 114.40 533.23 115.05 C 534.84 115.69 536.46 116.34 538.08 117.00 C 534.51 120.94 528.90 120.73 524.03 121.13 C 521.27 121.23 518.25 121.74 515.77 120.20 C 513.23 120.03 510.68 119.95 508.16 120.26 L 506.24 120.55 C 506.37 117.51 506.41 114.47 506.38 111.44 Z" />
</g>
<g id="#34d399ff">
<path fill="#34d399" opacity="1.00" d=" M 535.41 70.51 C 536.65 69.36 538.09 68.47 539.47 67.50 C 546.83 70.17 552.71 76.45 554.88 83.97 C 557.75 93.35 556.50 104.36 550.20 112.11 C 546.19 117.59 539.45 120.31 532.92 121.25 C 524.65 122.11 516.37 121.00 508.09 121.12 L 508.16 120.26 C 510.68 119.95 513.23 120.03 515.77 120.20 C 518.25 121.74 521.27 121.23 524.03 121.13 C 528.90 120.73 534.51 120.94 538.08 117.00 C 536.46 116.34 534.84 115.69 533.23 115.05 C 534.79 114.40 536.36 113.75 537.92 113.10 C 537.05 112.11 536.18 111.13 535.32 110.15 C 548.62 105.30 549.15 83.63 536.60 77.63 C 536.05 75.30 535.23 72.94 535.41 70.51 Z" />
</g>
</svg>
